# xmcd
#
# Track frame offsets:
#	182
#	10427
#	20597
#	34485
#	42322
#	54335
#	63935
#	76192
#	85685
#	97060
#	104305
#	117060
#	128782
#	142752
#	152755
#
# Disc length: 2170 seconds
#
# Revision: 1
# Processed by: cddbd v1.5.1PL2 Copyright (c) Steve Scherf et al.
# Submitted via: EasyCDDAExtractor 6.0.0.1
#
DISCID=b908780f
DTITLE=Various Artist - Country Music CM010 - Country Christmas
DYEAR=1999
DGENRE=Country
TTITLE0=Benny Martin - Santa Claus Is From The South
TTITLE1=Red Sovine - Christmas Love Song
TTITLE2=Cowboy Copas - From The Manger To The Cross
TTITLE3=Hylo Brown - Christmas In The Hills
TTITLE4=The Kingsmen - He's The Only One
TTITLE5=Glenda Raye - Santa's Workshop
TTITLE6=Johnny Bond - Here Was a Man
TTITLE7=The Lonesome Pine Fiddlers - Christmas Time's A Coming
TTITLE8=J.D.Sumner and The Stamps - Mine Eyes Have Seen The Coming Of The Lord
TTITLE9=The Willis Brothers - Jingle Jill and Jingle Joe
TTITLE10=Glenda Raye - Christmas Candy In July
TTITLE11=Red Sovine - Is There Really A Santa Claus?
TTITLE12=Davis Houston - Amazing Grace
TTITLE13=Bobby Sykes - An Old Fashioned Christmas
TTITLE14=Benny Martin - Droopy Little Christmas Tree
EXTD=
EXTT0=
EXTT1=
EXTT2=
EXTT3=
EXTT4=
EXTT5=
EXTT6=
EXTT7=
EXTT8=
EXTT9=
EXTT10=
EXTT11=
EXTT12=
EXTT13=
EXTT14=
PLAYORDER=
